# xmcd
#
# Track frame offsets: 
#        150
#        22595
#        44056
#        65798
#        87163
#        102644
#        118219
#        138139
#        160294
#        177942
#        197570
#        220109
#        242706
#        264656
#        291290
#        309346
#        331017
#
# Disc length: 4676 seconds
#
# Revision: 0
# Processed by: cddbd v1.4PL0 Copyright (c) Steve Scherf et al.
# Submitted via: ExactAudioCopy v0.95a3
#
DISCID=f6124211
DTITLE=Various Artist - 天长地久_男儿心
DYEAR=2003
DGENRE=Other
TTITLE0=谭咏麟-讲不出再见
TTITLE1=张震岳-爱我别走
TTITLE2=范逸臣-I Believe
TTITLE3=永邦-威尼斯的泪
TTITLE4=罗文-狮子山下
TTITLE5=陶诘-月亮代表谁的心
TTITLE6=黄凯芹-解情还须系情人
TTITLE7=蓝战士-下雨天
TTITLE8=庾澄庆-命中注定
TTITLE9=张国荣-片段
TTITLE10=吕方-流浪花
TTITLE11=许志安-为什么你背着我爱别人
TTITLE12=周传雄-我的心太乱
TTITLE13=游鸿明-下沙
TTITLE14=成龙-真的用了心
TTITLE15=邱泽-你知道我爱你
TTITLE16=刘德华-练习
EXTD=
EXTT0=
EXTT1=
EXTT2=
EXTT3=
EXTT4=
EXTT5=
EXTT6=
EXTT7=
EXTT8=
EXTT9=
EXTT10=
EXTT11=
EXTT12=
EXTT13=
EXTT14=
EXTT15=
EXTT16=
PLAYORDER=
